<svg xmlns="http://www.w3.org/2000/svg" width="26" height="26"><path style="line-height:normal;text-indent:0;text-align:start;text-decoration-line:none;text-decoration-style:solid;text-decoration-color:#000;text-transform:none;block-progression:tb;isolation:auto;mix-blend-mode:normal" d="M13.002 0C5.828 0 0 5.824 0 12.998 0 20.172 5.828 26 13.002 26S26 20.172 26 12.998 20.176 0 13.002 0zm0 1A11.99 11.99 0 0 1 25 12.998c0 6.633-5.365 12-11.998 12-6.633 0-12.002-5.367-12.002-12S6.369 1 13.002 1zM13 5a3.51 3.51 0 0 0-3.5 3.504 3.51 3.51 0 0 0 3.5 3.504 3.51 3.51 0 0 0 3.5-3.504A3.51 3.51 0 0 0 13 5zm-3.213 8.008c-1.537 0-2.795 1.245-2.795 2.777V20.5a.5.5 0 0 0 .5.5H18.51a.5.5 0 0 0 .498-.5v-4.714c0-1.533-1.258-2.778-2.795-2.778H9.787z" color="#000" font-family="sans-serif" font-weight="400" overflow="visible"/></svg>